<?xml version="1.0" encoding="utf-8"?>
<svg xmlns="http://www.w3.org/2000/svg" xmlns:xlink="http://www.w3.org/1999/xlink" width="600" height="400" viewBox="0 0 2400 1600">
<defs>
  <clipPath id="clip270">
    <rect x="0" y="0" width="2400" height="1600"/>
  </clipPath>
</defs>
<path clip-path="url(#clip270)" d="M0 1600 L2400 1600 L2400 0 L0 0  Z" fill="#ffffff" fill-rule="evenodd" fill-opacity="1"/>
<defs>
  <clipPath id="clip271">
    <rect x="480" y="0" width="1681" height="1600"/>
  </clipPath>
</defs>
<path clip-path="url(#clip270)" d="M234.125 1423.18 L2352.76 1423.18 L2352.76 47.2441 L234.125 47.2441  Z" fill="#ffffff" fill-rule="evenodd" fill-opacity="1"/>
<defs>
  <clipPath id="clip272">
    <rect x="234" y="47" width="2120" height="1377"/>
  </clipPath>
</defs>
<polyline clip-path="url(#clip272)" style="stroke:#000000; stroke-linecap:round; stroke-linejoin:round; stroke-width:2; stroke-opacity:0.1; fill:none" points="294.087,1423.18 294.087,47.2441 "/>
<polyline clip-path="url(#clip272)" style="stroke:#000000; stroke-linecap:round; stroke-linejoin:round; stroke-width:2; stroke-opacity:0.1; fill:none" points="641.085,1423.18 641.085,47.2441 "/>
<polyline clip-path="url(#clip272)" style="stroke:#000000; stroke-linecap:round; stroke-linejoin:round; stroke-width:2; stroke-opacity:0.1; fill:none" points="988.083,1423.18 988.083,47.2441 "/>
<polyline clip-path="url(#clip272)" style="stroke:#000000; stroke-linecap:round; stroke-linejoin:round; stroke-width:2; stroke-opacity:0.1; fill:none" points="1335.08,1423.18 1335.08,47.2441 "/>
<polyline clip-path="url(#clip272)" style="stroke:#000000; stroke-linecap:round; stroke-linejoin:round; stroke-width:2; stroke-opacity:0.1; fill:none" points="1682.08,1423.18 1682.08,47.2441 "/>
<polyline clip-path="url(#clip272)" style="stroke:#000000; stroke-linecap:round; stroke-linejoin:round; stroke-width:2; stroke-opacity:0.1; fill:none" points="2029.08,1423.18 2029.08,47.2441 "/>
<polyline clip-path="url(#clip272)" style="stroke:#000000; stroke-linecap:round; stroke-linejoin:round; stroke-width:2; stroke-opacity:0.1; fill:none" points="234.125,1384.24 2352.76,1384.24 "/>
<polyline clip-path="url(#clip272)" style="stroke:#000000; stroke-linecap:round; stroke-linejoin:round; stroke-width:2; stroke-opacity:0.1; fill:none" points="234.125,1083.76 2352.76,1083.76 "/>
<polyline clip-path="url(#clip272)" style="stroke:#000000; stroke-linecap:round; stroke-linejoin:round; stroke-width:2; stroke-opacity:0.1; fill:none" points="234.125,783.288 2352.76,783.288 "/>
<polyline clip-path="url(#clip272)" style="stroke:#000000; stroke-linecap:round; stroke-linejoin:round; stroke-width:2; stroke-opacity:0.1; fill:none" points="234.125,482.813 2352.76,482.813 "/>
<polyline clip-path="url(#clip272)" style="stroke:#000000; stroke-linecap:round; stroke-linejoin:round; stroke-width:2; stroke-opacity:0.1; fill:none" points="234.125,182.338 2352.76,182.338 "/>
<polyline clip-path="url(#clip270)" style="stroke:#000000; stroke-linecap:round; stroke-linejoin:round; stroke-width:4; stroke-opacity:1; fill:none" points="234.125,1423.18 2352.76,1423.18 "/>
<polyline clip-path="url(#clip270)" style="stroke:#000000; stroke-linecap:round; stroke-linejoin:round; stroke-width:4; stroke-opacity:1; fill:none" points="294.087,1423.18 294.087,1404.28 "/>
<polyline clip-path="url(#clip270)" style="stroke:#000000; stroke-linecap:round; stroke-linejoin:round; stroke-width:4; stroke-opacity:1; fill:none" points="641.085,1423.18 641.085,1404.28 "/>
<polyline clip-path="url(#clip270)" style="stroke:#000000; stroke-linecap:round; stroke-linejoin:round; stroke-width:4; stroke-opacity:1; fill:none" points="988.083,1423.18 988.083,1404.28 "/>
<polyline clip-path="url(#clip270)" style="stroke:#000000; stroke-linecap:round; stroke-linejoin:round; stroke-width:4; stroke-opacity:1; fill:none" points="1335.08,1423.18 1335.08,1404.28 "/>
<polyline clip-path="url(#clip270)" style="stroke:#000000; stroke-linecap:round; stroke-linejoin:round; stroke-width:4; stroke-opacity:1; fill:none" points="1682.08,1423.18 1682.08,1404.28 "/>
<polyline clip-path="url(#clip270)" style="stroke:#000000; stroke-linecap:round; stroke-linejoin:round; stroke-width:4; stroke-opacity:1; fill:none" points="2029.08,1423.18 2029.08,1404.28 "/>
<path clip-path="url(#clip270)" d="M294.087 1454.1 Q290.476 1454.1 288.647 1457.66 Q286.841 1461.2 286.841 1468.33 Q286.841 1475.44 288.647 1479.01 Q290.476 1482.55 294.087 1482.55 Q297.721 1482.55 299.526 1479.01 Q301.355 1475.44 301.355 1468.33 Q301.355 1461.2 299.526 1457.66 Q297.721 1454.1 294.087 1454.1 M294.087 1450.39 Q299.897 1450.39 302.952 1455 Q306.031 1459.58 306.031 1468.33 Q306.031 1477.06 302.952 1481.67 Q299.897 1486.25 294.087 1486.25 Q288.277 1486.25 285.198 1481.67 Q282.142 1477.06 282.142 1468.33 Q282.142 1459.58 285.198 1455 Q288.277 1450.39 294.087 1450.39 Z" fill="#000000" fill-rule="nonzero" fill-opacity="1" /><path clip-path="url(#clip270)" d="M615.784 1451.02 L634.14 1451.02 L634.14 1454.96 L620.066 1454.96 L620.066 1463.43 Q621.085 1463.08 622.103 1462.92 Q623.122 1462.73 624.14 1462.73 Q629.927 1462.73 633.307 1465.9 Q636.686 1469.08 636.686 1474.49 Q636.686 1480.07 633.214 1483.17 Q629.742 1486.25 623.423 1486.25 Q621.247 1486.25 618.978 1485.88 Q616.733 1485.51 614.325 1484.77 L614.325 1480.07 Q616.409 1481.2 618.631 1481.76 Q620.853 1482.32 623.33 1482.32 Q627.335 1482.32 629.673 1480.21 Q632.011 1478.1 632.011 1474.49 Q632.011 1470.88 629.673 1468.77 Q627.335 1466.67 623.33 1466.67 Q621.455 1466.67 619.58 1467.08 Q617.728 1467.5 615.784 1468.38 L615.784 1451.02 Z" fill="#000000" fill-rule="nonzero" fill-opacity="1" /><path clip-path="url(#clip270)" d="M655.899 1454.1 Q652.288 1454.1 650.46 1457.66 Q648.654 1461.2 648.654 1468.33 Q648.654 1475.44 650.46 1479.01 Q652.288 1482.55 655.899 1482.55 Q659.534 1482.55 661.339 1479.01 Q663.168 1475.44 663.168 1468.33 Q663.168 1461.2 661.339 1457.66 Q659.534 1454.1 655.899 1454.1 M655.899 1450.39 Q661.709 1450.39 664.765 1455 Q667.844 1459.58 667.844 1468.33 Q667.844 1477.06 664.765 1481.67 Q661.709 1486.25 655.899 1486.25 Q650.089 1486.25 647.01 1481.67 Q643.955 1477.06 643.955 1468.33 Q643.955 1459.58 647.01 1455 Q650.089 1450.39 655.899 1450.39 Z" fill="#000000" fill-rule="nonzero" fill-opacity="1" /><path clip-path="url(#clip270)" d="M947.689 1481.64 L955.328 1481.64 L955.328 1455.28 L947.018 1456.95 L947.018 1452.69 L955.282 1451.02 L959.958 1451.02 L959.958 1481.64 L967.597 1481.64 L967.597 1485.58 L947.689 1485.58 L947.689 1481.64 Z" fill="#000000" fill-rule="nonzero" fill-opacity="1" /><path clip-path="url(#clip270)" d="M987.041 1454.1 Q983.43 1454.1 981.601 1457.66 Q979.796 1461.2 979.796 1468.33 Q979.796 1475.44 981.601 1479.01 Q983.43 1482.55 987.041 1482.55 Q990.675 1482.55 992.481 1479.01 Q994.309 1475.44 994.309 1468.33 Q994.309 1461.2 992.481 1457.66 Q990.675 1454.1 987.041 1454.1 M987.041 1450.39 Q992.851 1450.39 995.907 1455 Q998.985 1459.58 998.985 1468.33 Q998.985 1477.06 995.907 1481.67 Q992.851 1486.25 987.041 1486.25 Q981.231 1486.25 978.152 1481.67 Q975.096 1477.06 975.096 1468.33 Q975.096 1459.58 978.152 1455 Q981.231 1450.39 987.041 1450.39 Z" fill="#000000" fill-rule="nonzero" fill-opacity="1" /><path clip-path="url(#clip270)" d="M1017.2 1454.1 Q1013.59 1454.1 1011.76 1457.66 Q1009.96 1461.2 1009.96 1468.33 Q1009.96 1475.44 1011.76 1479.01 Q1013.59 1482.55 1017.2 1482.55 Q1020.84 1482.55 1022.64 1479.01 Q1024.47 1475.44 1024.47 1468.33 Q1024.47 1461.2 1022.64 1457.66 Q1020.84 1454.1 1017.2 1454.1 M1017.2 1450.39 Q1023.01 1450.39 1026.07 1455 Q1029.15 1459.58 1029.15 1468.33 Q1029.15 1477.06 1026.07 1481.67 Q1023.01 1486.25 1017.2 1486.25 Q1011.39 1486.25 1008.31 1481.67 Q1005.26 1477.06 1005.26 1468.33 Q1005.26 1459.58 1008.31 1455 Q1011.39 1450.39 1017.2 1450.39 Z" fill="#000000" fill-rule="nonzero" fill-opacity="1" /><path clip-path="url(#clip270)" d="M1294.69 1481.64 L1302.33 1481.64 L1302.33 1455.28 L1294.02 1456.95 L1294.02 1452.69 L1302.28 1451.02 L1306.96 1451.02 L1306.96 1481.64 L1314.59 1481.64 L1314.59 1485.58 L1294.69 1485.58 L1294.69 1481.64 Z" fill="#000000" fill-rule="nonzero" fill-opacity="1" /><path clip-path="url(#clip270)" d="M1324.09 1451.02 L1342.44 1451.02 L1342.44 1454.96 L1328.37 1454.96 L1328.37 1463.43 Q1329.39 1463.08 1330.4 1462.92 Q1331.42 1462.73 1332.44 1462.73 Q1338.23 1462.73 1341.61 1465.9 Q1344.99 1469.08 1344.99 1474.49 Q1344.99 1480.07 1341.52 1483.17 Q1338.04 1486.25 1331.72 1486.25 Q1329.55 1486.25 1327.28 1485.88 Q1325.03 1485.51 1322.63 1484.77 L1322.63 1480.07 Q1324.71 1481.2 1326.93 1481.76 Q1329.15 1482.32 1331.63 1482.32 Q1335.64 1482.32 1337.97 1480.21 Q1340.31 1478.1 1340.31 1474.49 Q1340.31 1470.88 1337.97 1468.77 Q1335.64 1466.67 1331.63 1466.67 Q1329.76 1466.67 1327.88 1467.08 Q1326.03 1467.5 1324.09 1468.38 L1324.09 1451.02 Z" fill="#000000" fill-rule="nonzero" fill-opacity="1" /><path clip-path="url(#clip270)" d="M1364.2 1454.1 Q1360.59 1454.1 1358.76 1457.66 Q1356.96 1461.2 1356.96 1468.33 Q1356.96 1475.44 1358.76 1479.01 Q1360.59 1482.55 1364.2 1482.55 Q1367.83 1482.55 1369.64 1479.01 Q1371.47 1475.44 1371.47 1468.33 Q1371.47 1461.2 1369.64 1457.66 Q1367.83 1454.1 1364.2 1454.1 M1364.2 1450.39 Q1370.01 1450.39 1373.07 1455 Q1376.15 1459.58 1376.15 1468.33 Q1376.15 1477.06 1373.07 1481.67 Q1370.01 1486.25 1364.2 1486.25 Q1358.39 1486.25 1355.31 1481.67 Q1352.26 1477.06 1352.26 1468.33 Q1352.26 1459.58 1355.31 1455 Q1358.39 1450.39 1364.2 1450.39 Z" fill="#000000" fill-rule="nonzero" fill-opacity="1" /><path clip-path="url(#clip270)" d="M1645.77 1481.64 L1662.09 1481.64 L1662.09 1485.58 L1640.15 1485.58 L1640.15 1481.64 Q1642.81 1478.89 1647.39 1474.26 Q1652 1469.61 1653.18 1468.27 Q1655.42 1465.74 1656.3 1464.01 Q1657.21 1462.25 1657.21 1460.56 Q1657.21 1457.8 1655.26 1456.07 Q1653.34 1454.33 1650.24 1454.33 Q1648.04 1454.33 1645.59 1455.09 Q1643.15 1455.86 1640.38 1457.41 L1640.38 1452.69 Q1643.2 1451.55 1645.65 1450.97 Q1648.11 1450.39 1650.15 1450.39 Q1655.52 1450.39 1658.71 1453.08 Q1661.9 1455.77 1661.9 1460.26 Q1661.9 1462.39 1661.09 1464.31 Q1660.31 1466.2 1658.2 1468.8 Q1657.62 1469.47 1654.52 1472.69 Q1651.42 1475.88 1645.77 1481.64 Z" fill="#000000" fill-rule="nonzero" fill-opacity="1" /><path clip-path="url(#clip270)" d="M1681.9 1454.1 Q1678.29 1454.1 1676.46 1457.66 Q1674.66 1461.2 1674.66 1468.33 Q1674.66 1475.44 1676.46 1479.01 Q1678.29 1482.55 1681.9 1482.55 Q1685.54 1482.55 1687.34 1479.01 Q1689.17 1475.44 1689.17 1468.33 Q1689.17 1461.2 1687.34 1457.66 Q1685.54 1454.1 1681.9 1454.1 M1681.9 1450.39 Q1687.71 1450.39 1690.77 1455 Q1693.85 1459.58 1693.85 1468.33 Q1693.85 1477.06 1690.77 1481.67 Q1687.71 1486.25 1681.9 1486.25 Q1676.09 1486.25 1673.02 1481.67 Q1669.96 1477.06 1669.96 1468.33 Q1669.96 1459.58 1673.02 1455 Q1676.09 1450.39 1681.9 1450.39 Z" fill="#000000" fill-rule="nonzero" fill-opacity="1" /><path clip-path="url(#clip270)" d="M1712.07 1454.1 Q1708.46 1454.1 1706.63 1457.66 Q1704.82 1461.2 1704.82 1468.33 Q1704.82 1475.44 1706.63 1479.01 Q1708.46 1482.55 1712.07 1482.55 Q1715.7 1482.55 1717.51 1479.01 Q1719.34 1475.44 1719.34 1468.33 Q1719.34 1461.2 1717.51 1457.66 Q1715.7 1454.1 1712.07 1454.1 M1712.07 1450.39 Q1717.88 1450.39 1720.93 1455 Q1724.01 1459.58 1724.01 1468.33 Q1724.01 1477.06 1720.93 1481.67 Q1717.88 1486.25 1712.07 1486.25 Q1706.26 1486.25 1703.18 1481.67 Q1700.12 1477.06 1700.12 1468.33 Q1700.12 1459.58 1703.18 1455 Q1706.26 1450.39 1712.07 1450.39 Z" fill="#000000" fill-rule="nonzero" fill-opacity="1" /><path clip-path="url(#clip270)" d="M1992.77 1481.64 L2009.09 1481.64 L2009.09 1485.58 L1987.14 1485.58 L1987.14 1481.64 Q1989.81 1478.89 1994.39 1474.26 Q1999 1469.61 2000.18 1468.27 Q2002.42 1465.74 2003.3 1464.01 Q2004.2 1462.25 2004.2 1460.56 Q2004.2 1457.8 2002.26 1456.07 Q2000.34 1454.33 1997.24 1454.33 Q1995.04 1454.33 1992.58 1455.09 Q1990.15 1455.86 1987.38 1457.41 L1987.38 1452.69 Q1990.2 1451.55 1992.65 1450.97 Q1995.11 1450.39 1997.14 1450.39 Q2002.51 1450.39 2005.71 1453.08 Q2008.9 1455.77 2008.9 1460.26 Q2008.9 1462.39 2008.09 1464.31 Q2007.31 1466.2 2005.2 1468.8 Q2004.62 1469.47 2001.52 1472.69 Q1998.42 1475.88 1992.77 1481.64 Z" fill="#000000" fill-rule="nonzero" fill-opacity="1" /><path clip-path="url(#clip270)" d="M2018.95 1451.02 L2037.31 1451.02 L2037.31 1454.96 L2023.23 1454.96 L2023.23 1463.43 Q2024.25 1463.08 2025.27 1462.92 Q2026.29 1462.73 2027.31 1462.73 Q2033.09 1462.73 2036.47 1465.9 Q2039.85 1469.08 2039.85 1474.49 Q2039.85 1480.07 2036.38 1483.17 Q2032.91 1486.25 2026.59 1486.25 Q2024.41 1486.25 2022.14 1485.88 Q2019.9 1485.51 2017.49 1484.77 L2017.49 1480.07 Q2019.57 1481.2 2021.8 1481.76 Q2024.02 1482.32 2026.5 1482.32 Q2030.5 1482.32 2032.84 1480.21 Q2035.18 1478.1 2035.18 1474.49 Q2035.18 1470.88 2032.84 1468.77 Q2030.5 1466.67 2026.5 1466.67 Q2024.62 1466.67 2022.75 1467.08 Q2020.89 1467.5 2018.95 1468.38 L2018.95 1451.02 Z" fill="#000000" fill-rule="nonzero" fill-opacity="1" /><path clip-path="url(#clip270)" d="M2059.06 1454.1 Q2055.45 1454.1 2053.62 1457.66 Q2051.82 1461.2 2051.82 1468.33 Q2051.82 1475.44 2053.62 1479.01 Q2055.45 1482.55 2059.06 1482.55 Q2062.7 1482.55 2064.5 1479.01 Q2066.33 1475.44 2066.33 1468.33 Q2066.33 1461.2 2064.5 1457.66 Q2062.7 1454.1 2059.06 1454.1 M2059.06 1450.39 Q2064.87 1450.39 2067.93 1455 Q2071.01 1459.58 2071.01 1468.33 Q2071.01 1477.06 2067.93 1481.67 Q2064.87 1486.25 2059.06 1486.25 Q2053.25 1486.25 2050.18 1481.67 Q2047.12 1477.06 2047.12 1468.33 Q2047.12 1459.58 2050.18 1455 Q2053.25 1450.39 2059.06 1450.39 Z" fill="#000000" fill-rule="nonzero" fill-opacity="1" /><path clip-path="url(#clip270)" d="M1237.71 1524.18 L1237.71 1530.96 Q1234.46 1527.94 1230.77 1526.44 Q1227.11 1524.95 1222.97 1524.95 Q1214.82 1524.95 1210.5 1529.95 Q1206.17 1534.91 1206.17 1544.33 Q1206.17 1553.72 1210.5 1558.72 Q1214.82 1563.68 1222.97 1563.68 Q1227.11 1563.68 1230.77 1562.19 Q1234.46 1560.69 1237.71 1557.67 L1237.71 1564.38 Q1234.34 1566.68 1230.55 1567.82 Q1226.79 1568.97 1222.59 1568.97 Q1211.8 1568.97 1205.59 1562.38 Q1199.39 1555.76 1199.39 1544.33 Q1199.39 1532.87 1205.59 1526.28 Q1211.8 1519.66 1222.59 1519.66 Q1226.86 1519.66 1230.61 1520.81 Q1234.4 1521.92 1237.71 1524.18 Z" fill="#000000" fill-rule="nonzero" fill-opacity="1" /><path clip-path="url(#clip270)" d="M1263.59 1550.12 Q1256.49 1550.12 1253.75 1551.75 Q1251.01 1553.37 1251.01 1557.29 Q1251.01 1560.4 1253.05 1562.25 Q1255.12 1564.07 1258.65 1564.07 Q1263.52 1564.07 1266.45 1560.63 Q1269.41 1557.16 1269.41 1551.43 L1269.41 1550.12 L1263.59 1550.12 M1275.27 1547.71 L1275.27 1568.04 L1269.41 1568.04 L1269.41 1562.63 Q1267.4 1565.88 1264.41 1567.44 Q1261.42 1568.97 1257.09 1568.97 Q1251.62 1568.97 1248.37 1565.91 Q1245.16 1562.82 1245.16 1557.67 Q1245.16 1551.65 1249.17 1548.6 Q1253.21 1545.54 1261.2 1545.54 L1269.41 1545.54 L1269.41 1544.97 Q1269.41 1540.93 1266.74 1538.73 Q1264.09 1536.5 1259.29 1536.5 Q1256.23 1536.5 1253.34 1537.23 Q1250.44 1537.97 1247.77 1539.43 L1247.77 1534.02 Q1250.98 1532.78 1254.01 1532.17 Q1257.03 1531.54 1259.89 1531.54 Q1267.63 1531.54 1271.45 1535.55 Q1275.27 1539.56 1275.27 1547.71 Z" fill="#000000" fill-rule="nonzero" fill-opacity="1" /><path clip-path="url(#clip270)" d="M1287.11 1518.52 L1293 1518.52 L1293 1547.77 L1310.47 1532.4 L1317.95 1532.4 L1299.04 1549.07 L1318.74 1568.04 L1311.11 1568.04 L1293 1550.63 L1293 1568.04 L1287.11 1568.04 L1287.11 1518.52 Z" fill="#000000" fill-rule="nonzero" fill-opacity="1" /><path clip-path="url(#clip270)" d="M1353.25 1548.76 L1353.25 1551.62 L1326.32 1551.62 Q1326.7 1557.67 1329.95 1560.85 Q1333.23 1564 1339.05 1564 Q1342.42 1564 1345.58 1563.17 Q1348.76 1562.35 1351.88 1560.69 L1351.88 1566.23 Q1348.73 1567.57 1345.42 1568.27 Q1342.11 1568.97 1338.7 1568.97 Q1330.17 1568.97 1325.17 1564 Q1320.21 1559.04 1320.21 1550.57 Q1320.21 1541.82 1324.92 1536.69 Q1329.66 1531.54 1337.68 1531.54 Q1344.88 1531.54 1349.05 1536.18 Q1353.25 1540.8 1353.25 1548.76 M1347.39 1547.04 Q1347.33 1542.23 1344.68 1539.37 Q1342.07 1536.5 1337.75 1536.5 Q1332.84 1536.5 1329.88 1539.27 Q1326.96 1542.04 1326.51 1547.07 L1347.39 1547.04 Z" fill="#000000" fill-rule="nonzero" fill-opacity="1" /><path clip-path="url(#clip270)" d="M1385.58 1533.45 L1385.58 1538.98 Q1383.1 1537.71 1380.43 1537.07 Q1377.75 1536.44 1374.89 1536.44 Q1370.53 1536.44 1368.33 1537.77 Q1366.17 1539.11 1366.17 1541.79 Q1366.17 1543.82 1367.73 1545 Q1369.29 1546.15 1374 1547.2 L1376 1547.64 Q1382.24 1548.98 1384.85 1551.43 Q1387.49 1553.85 1387.49 1558.21 Q1387.49 1563.17 1383.55 1566.07 Q1379.63 1568.97 1372.76 1568.97 Q1369.89 1568.97 1366.77 1568.39 Q1363.69 1567.85 1360.25 1566.74 L1360.25 1560.69 Q1363.5 1562.38 1366.65 1563.24 Q1369.8 1564.07 1372.88 1564.07 Q1377.02 1564.07 1379.25 1562.66 Q1381.48 1561.23 1381.48 1558.65 Q1381.48 1556.27 1379.86 1554.99 Q1378.26 1553.72 1372.82 1552.54 L1370.78 1552.07 Q1365.34 1550.92 1362.92 1548.56 Q1360.5 1546.18 1360.5 1542.04 Q1360.5 1537.01 1364.07 1534.27 Q1367.63 1531.54 1374.19 1531.54 Q1377.44 1531.54 1380.3 1532.01 Q1383.17 1532.49 1385.58 1533.45 Z" fill="#000000" fill-rule="nonzero" fill-opacity="1" /><polyline clip-path="url(#clip270)" style="stroke:#000000; stroke-linecap:round; stroke-linejoin:round; stroke-width:4; stroke-opacity:1; fill:none" points="234.125,1423.18 234.125,47.2441 "/>
<polyline clip-path="url(#clip270)" style="stroke:#000000; stroke-linecap:round; stroke-linejoin:round; stroke-width:4; stroke-opacity:1; fill:none" points="234.125,1384.24 253.023,1384.24 "/>
<polyline clip-path="url(#clip270)" style="stroke:#000000; stroke-linecap:round; stroke-linejoin:round; stroke-width:4; stroke-opacity:1; fill:none" points="234.125,1083.76 253.023,1083.76 "/>
<polyline clip-path="url(#clip270)" style="stroke:#000000; stroke-linecap:round; stroke-linejoin:round; stroke-width:4; stroke-opacity:1; fill:none" points="234.125,783.288 253.023,783.288 "/>
<polyline clip-path="url(#clip270)" style="stroke:#000000; stroke-linecap:round; stroke-linejoin:round; stroke-width:4; stroke-opacity:1; fill:none" points="234.125,482.813 253.023,482.813 "/>
<polyline clip-path="url(#clip270)" style="stroke:#000000; stroke-linecap:round; stroke-linejoin:round; stroke-width:4; stroke-opacity:1; fill:none" points="234.125,182.338 253.023,182.338 "/>
<path clip-path="url(#clip270)" d="M186.181 1370.04 Q182.57 1370.04 180.741 1373.6 Q178.936 1377.14 178.936 1384.27 Q178.936 1391.38 180.741 1394.94 Q182.57 1398.49 186.181 1398.49 Q189.815 1398.49 191.621 1394.94 Q193.45 1391.38 193.45 1384.27 Q193.45 1377.14 191.621 1373.6 Q189.815 1370.04 186.181 1370.04 M186.181 1366.33 Q191.991 1366.33 195.047 1370.94 Q198.125 1375.52 198.125 1384.27 Q198.125 1393 195.047 1397.61 Q191.991 1402.19 186.181 1402.19 Q180.371 1402.19 177.292 1397.61 Q174.237 1393 174.237 1384.27 Q174.237 1375.52 177.292 1370.94 Q180.371 1366.33 186.181 1366.33 Z" fill="#000000" fill-rule="nonzero" fill-opacity="1" /><path clip-path="url(#clip270)" d="M146.066 1066.48 L164.422 1066.48 L164.422 1070.42 L150.348 1070.42 L150.348 1078.89 Q151.366 1078.54 152.385 1078.38 Q153.403 1078.2 154.422 1078.2 Q160.209 1078.2 163.589 1081.37 Q166.968 1084.54 166.968 1089.96 Q166.968 1095.53 163.496 1098.64 Q160.024 1101.71 153.704 1101.71 Q151.528 1101.71 149.26 1101.34 Q147.015 1100.97 144.607 1100.23 L144.607 1095.53 Q146.691 1096.67 148.913 1097.22 Q151.135 1097.78 153.612 1097.78 Q157.616 1097.78 159.954 1095.67 Q162.292 1093.57 162.292 1089.96 Q162.292 1086.34 159.954 1084.24 Q157.616 1082.13 153.612 1082.13 Q151.737 1082.13 149.862 1082.55 Q148.01 1082.96 146.066 1083.84 L146.066 1066.48 Z" fill="#000000" fill-rule="nonzero" fill-opacity="1" /><path clip-path="url(#clip270)" d="M186.181 1069.56 Q182.57 1069.56 180.741 1073.13 Q178.936 1076.67 178.936 1083.8 Q178.936 1090.9 180.741 1094.47 Q182.57 1098.01 186.181 1098.01 Q189.815 1098.01 191.621 1094.47 Q193.45 1090.9 193.45 1083.8 Q193.45 1076.67 191.621 1073.13 Q189.815 1069.56 186.181 1069.56 M186.181 1065.86 Q191.991 1065.86 195.047 1070.46 Q198.125 1075.05 198.125 1083.8 Q198.125 1092.52 195.047 1097.13 Q191.991 1101.71 186.181 1101.71 Q180.371 1101.71 177.292 1097.13 Q174.237 1092.52 174.237 1083.8 Q174.237 1075.05 177.292 1070.46 Q180.371 1065.86 186.181 1065.86 Z" fill="#000000" fill-rule="nonzero" fill-opacity="1" /><path clip-path="url(#clip270)" d="M116.668 796.633 L124.306 796.633 L124.306 770.267 L115.996 771.934 L115.996 767.675 L124.26 766.008 L128.936 766.008 L128.936 796.633 L136.575 796.633 L136.575 800.568 L116.668 800.568 L116.668 796.633 Z" fill="#000000" fill-rule="nonzero" fill-opacity="1" /><path clip-path="url(#clip270)" d="M156.019 769.087 Q152.408 769.087 150.579 772.651 Q148.774 776.193 148.774 783.323 Q148.774 790.429 150.579 793.994 Q152.408 797.536 156.019 797.536 Q159.653 797.536 161.459 793.994 Q163.288 790.429 163.288 783.323 Q163.288 776.193 161.459 772.651 Q159.653 769.087 156.019 769.087 M156.019 765.383 Q161.829 765.383 164.885 769.989 Q167.964 774.573 167.964 783.323 Q167.964 792.05 164.885 796.656 Q161.829 801.239 156.019 801.239 Q150.209 801.239 147.13 796.656 Q144.075 792.05 144.075 783.323 Q144.075 774.573 147.13 769.989 Q150.209 765.383 156.019 765.383 Z" fill="#000000" fill-rule="nonzero" fill-opacity="1" /><path clip-path="url(#clip270)" d="M186.181 769.087 Q182.57 769.087 180.741 772.651 Q178.936 776.193 178.936 783.323 Q178.936 790.429 180.741 793.994 Q182.57 797.536 186.181 797.536 Q189.815 797.536 191.621 793.994 Q193.45 790.429 193.45 783.323 Q193.45 776.193 191.621 772.651 Q189.815 769.087 186.181 769.087 M186.181 765.383 Q191.991 765.383 195.047 769.989 Q198.125 774.573 198.125 783.323 Q198.125 792.05 195.047 796.656 Q191.991 801.239 186.181 801.239 Q180.371 801.239 177.292 796.656 Q174.237 792.05 174.237 783.323 Q174.237 774.573 177.292 769.989 Q180.371 765.383 186.181 765.383 Z" fill="#000000" fill-rule="nonzero" fill-opacity="1" /><path clip-path="url(#clip270)" d="M116.668 496.158 L124.306 496.158 L124.306 469.792 L115.996 471.459 L115.996 467.2 L124.26 465.533 L128.936 465.533 L128.936 496.158 L136.575 496.158 L136.575 500.093 L116.668 500.093 L116.668 496.158 Z" fill="#000000" fill-rule="nonzero" fill-opacity="1" /><path clip-path="url(#clip270)" d="M146.066 465.533 L164.422 465.533 L164.422 469.468 L150.348 469.468 L150.348 477.94 Q151.366 477.593 152.385 477.431 Q153.403 477.246 154.422 477.246 Q160.209 477.246 163.589 480.417 Q166.968 483.588 166.968 489.005 Q166.968 494.584 163.496 497.685 Q160.024 500.764 153.704 500.764 Q151.528 500.764 149.26 500.394 Q147.015 500.023 144.607 499.283 L144.607 494.584 Q146.691 495.718 148.913 496.273 Q151.135 496.829 153.612 496.829 Q157.616 496.829 159.954 494.723 Q162.292 492.616 162.292 489.005 Q162.292 485.394 159.954 483.287 Q157.616 481.181 153.612 481.181 Q151.737 481.181 149.862 481.598 Q148.01 482.014 146.066 482.894 L146.066 465.533 Z" fill="#000000" fill-rule="nonzero" fill-opacity="1" /><path clip-path="url(#clip270)" d="M186.181 468.612 Q182.57 468.612 180.741 472.176 Q178.936 475.718 178.936 482.848 Q178.936 489.954 180.741 493.519 Q182.57 497.06 186.181 497.06 Q189.815 497.06 191.621 493.519 Q193.45 489.954 193.45 482.848 Q193.45 475.718 191.621 472.176 Q189.815 468.612 186.181 468.612 M186.181 464.908 Q191.991 464.908 195.047 469.514 Q198.125 474.098 198.125 482.848 Q198.125 491.574 195.047 496.181 Q191.991 500.764 186.181 500.764 Q180.371 500.764 177.292 496.181 Q174.237 491.574 174.237 482.848 Q174.237 474.098 177.292 469.514 Q180.371 464.908 186.181 464.908 Z" fill="#000000" fill-rule="nonzero" fill-opacity="1" /><path clip-path="url(#clip270)" d="M119.885 195.683 L136.204 195.683 L136.204 199.618 L114.26 199.618 L114.26 195.683 Q116.922 192.928 121.505 188.298 Q126.112 183.646 127.292 182.303 Q129.538 179.78 130.417 178.044 Q131.32 176.285 131.32 174.595 Q131.32 171.84 129.376 170.104 Q127.455 168.368 124.353 168.368 Q122.154 168.368 119.7 169.132 Q117.269 169.896 114.492 171.447 L114.492 166.724 Q117.316 165.59 119.769 165.011 Q122.223 164.433 124.26 164.433 Q129.63 164.433 132.825 167.118 Q136.019 169.803 136.019 174.294 Q136.019 176.423 135.209 178.345 Q134.422 180.243 132.316 182.835 Q131.737 183.507 128.635 186.724 Q125.533 189.919 119.885 195.683 Z" fill="#000000" fill-rule="nonzero" fill-opacity="1" /><path clip-path="url(#clip270)" d="M156.019 168.136 Q152.408 168.136 150.579 171.701 Q148.774 175.243 148.774 182.372 Q148.774 189.479 150.579 193.044 Q152.408 196.585 156.019 196.585 Q159.653 196.585 161.459 193.044 Q163.288 189.479 163.288 182.372 Q163.288 175.243 161.459 171.701 Q159.653 168.136 156.019 168.136 M156.019 164.433 Q161.829 164.433 164.885 169.039 Q167.964 173.622 167.964 182.372 Q167.964 191.099 164.885 195.706 Q161.829 200.289 156.019 200.289 Q150.209 200.289 147.13 195.706 Q144.075 191.099 144.075 182.372 Q144.075 173.622 147.13 169.039 Q150.209 164.433 156.019 164.433 Z" fill="#000000" fill-rule="nonzero" fill-opacity="1" /><path clip-path="url(#clip270)" d="M186.181 168.136 Q182.57 168.136 180.741 171.701 Q178.936 175.243 178.936 182.372 Q178.936 189.479 180.741 193.044 Q182.57 196.585 186.181 196.585 Q189.815 196.585 191.621 193.044 Q193.45 189.479 193.45 182.372 Q193.45 175.243 191.621 171.701 Q189.815 168.136 186.181 168.136 M186.181 164.433 Q191.991 164.433 195.047 169.039 Q198.125 173.622 198.125 182.372 Q198.125 191.099 195.047 195.706 Q191.991 200.289 186.181 200.289 Q180.371 200.289 177.292 195.706 Q174.237 191.099 174.237 182.372 Q174.237 173.622 177.292 169.039 Q180.371 164.433 186.181 164.433 Z" fill="#000000" fill-rule="nonzero" fill-opacity="1" /><path clip-path="url(#clip270)" d="M41.3104 818.38 L58.7206 818.38 L58.7206 808.067 Q58.7206 802.879 56.5881 800.397 Q54.4238 797.882 49.9996 797.882 Q45.5436 797.882 43.4429 800.397 Q41.3104 802.879 41.3104 808.067 L41.3104 818.38 M21.7677 818.38 L36.0905 818.38 L36.0905 808.863 Q36.0905 804.153 34.34 801.861 Q32.5576 799.537 28.9291 799.537 Q25.3325 799.537 23.5501 801.861 Q21.7677 804.153 21.7677 808.863 L21.7677 818.38 M16.4842 824.809 L16.4842 808.386 Q16.4842 801.033 19.5397 797.055 Q22.5952 793.076 28.2289 793.076 Q32.5894 793.076 35.1675 795.113 Q37.7456 797.15 38.3822 801.097 Q39.4007 796.355 42.6472 793.745 Q45.8619 791.103 50.6998 791.103 Q57.0655 791.103 60.5348 795.432 Q64.0042 799.76 64.0042 807.749 L64.0042 824.809 L16.4842 824.809 Z" fill="#000000" fill-rule="nonzero" fill-opacity="1" /><path clip-path="url(#clip270)" d="M33.8307 759.688 Q33.2578 760.675 33.0032 761.852 Q32.7167 762.998 32.7167 764.399 Q32.7167 769.364 35.9632 772.038 Q39.1779 774.679 45.2253 774.679 L64.0042 774.679 L64.0042 780.568 L28.3562 780.568 L28.3562 774.679 L33.8944 774.679 Q30.6479 772.833 29.0883 769.873 Q27.4968 766.913 27.4968 762.68 Q27.4968 762.075 27.5923 761.343 Q27.656 760.611 27.8151 759.72 L33.8307 759.688 Z" fill="#000000" fill-rule="nonzero" fill-opacity="1" /><path clip-path="url(#clip270)" d="M44.7161 724.486 L47.5806 724.486 L47.5806 751.413 Q53.6281 751.031 56.8109 747.784 Q59.9619 744.506 59.9619 738.681 Q59.9619 735.307 59.1344 732.156 Q58.3069 728.974 56.6518 725.854 L62.1899 725.854 Q63.5267 729.005 64.227 732.316 Q64.9272 735.626 64.9272 739.031 Q64.9272 747.561 59.9619 752.559 Q54.9967 757.524 46.5303 757.524 Q37.7774 757.524 32.6531 752.813 Q27.4968 748.071 27.4968 740.05 Q27.4968 732.857 32.1438 728.687 Q36.7589 724.486 44.7161 724.486 M42.9973 730.342 Q38.1912 730.406 35.3266 733.048 Q32.4621 735.658 32.4621 739.986 Q32.4621 744.888 35.2312 747.848 Q38.0002 750.776 43.0292 751.222 L42.9973 730.342 Z" fill="#000000" fill-rule="nonzero" fill-opacity="1" /><path clip-path="url(#clip270)" d="M46.0847 698.673 Q46.0847 705.771 47.7079 708.508 Q49.3312 711.245 53.2461 711.245 Q56.3653 711.245 58.2114 709.208 Q60.0256 707.139 60.0256 703.606 Q60.0256 698.736 56.5881 695.808 Q53.1188 692.848 47.3897 692.848 L46.0847 692.848 L46.0847 698.673 M43.6657 686.992 L64.0042 686.992 L64.0042 692.848 L58.5933 692.848 Q61.8398 694.853 63.3994 697.845 Q64.9272 700.837 64.9272 705.166 Q64.9272 710.64 61.8716 713.887 Q58.7843 717.102 53.6281 717.102 Q47.6125 717.102 44.5569 713.091 Q41.5014 709.049 41.5014 701.06 L41.5014 692.848 L40.9285 692.848 Q36.8862 692.848 34.6901 695.522 Q32.4621 698.164 32.4621 702.97 Q32.4621 706.025 33.1941 708.922 Q33.9262 711.818 35.3903 714.492 L29.9795 714.492 Q28.7381 711.277 28.1334 708.253 Q27.4968 705.229 27.4968 702.365 Q27.4968 694.631 31.5072 690.811 Q35.5176 686.992 43.6657 686.992 Z" fill="#000000" fill-rule="nonzero" fill-opacity="1" /><path clip-path="url(#clip270)" d="M33.7671 651.471 L14.479 651.471 L14.479 645.615 L64.0042 645.615 L64.0042 651.471 L58.657 651.471 Q61.8398 653.317 63.3994 656.15 Q64.9272 658.951 64.9272 662.898 Q64.9272 669.359 59.771 673.433 Q54.6147 677.475 46.212 677.475 Q37.8093 677.475 32.6531 673.433 Q27.4968 669.359 27.4968 662.898 Q27.4968 658.951 29.0564 656.15 Q30.5842 653.317 33.7671 651.471 M46.212 671.428 Q52.6732 671.428 56.3653 668.786 Q60.0256 666.112 60.0256 661.465 Q60.0256 656.818 56.3653 654.145 Q52.6732 651.471 46.212 651.471 Q39.7508 651.471 36.0905 654.145 Q32.3984 656.818 32.3984 661.465 Q32.3984 666.112 36.0905 668.786 Q39.7508 671.428 46.212 671.428 Z" fill="#000000" fill-rule="nonzero" fill-opacity="1" /><polyline clip-path="url(#clip272)" style="stroke:#009af9; stroke-linecap:round; stroke-linejoin:round; stroke-width:4; stroke-opacity:1; fill:none" points="294.087,86.1857 627.205,302.528 960.323,518.87 1293.44,735.212 1626.56,951.554 1959.68,1167.9 2292.79,1384.24 "/>
<path clip-path="url(#clip270)" d="M1987.22 196.789 L2282.13 196.789 L2282.13 93.1086 L1987.22 93.1086  Z" fill="#ffffff" fill-rule="evenodd" fill-opacity="1"/>
<polyline clip-path="url(#clip270)" style="stroke:#000000; stroke-linecap:round; stroke-linejoin:round; stroke-width:4; stroke-opacity:1; fill:none" points="1987.22,196.789 2282.13,196.789 2282.13,93.1086 1987.22,93.1086 1987.22,196.789 "/>
<polyline clip-path="url(#clip270)" style="stroke:#009af9; stroke-linecap:round; stroke-linejoin:round; stroke-width:4; stroke-opacity:1; fill:none" points="2010.76,144.949 2152,144.949 "/>
<path clip-path="url(#clip270)" d="M2180.22 131.511 L2180.22 144.497 L2186.09 144.497 Q2189.36 144.497 2191.14 142.807 Q2192.92 141.118 2192.92 137.993 Q2192.92 134.891 2191.14 133.201 Q2189.36 131.511 2186.09 131.511 L2180.22 131.511 M2175.54 127.669 L2186.09 127.669 Q2191.91 127.669 2194.87 130.307 Q2197.85 132.923 2197.85 137.993 Q2197.85 143.108 2194.87 145.724 Q2191.91 148.34 2186.09 148.34 L2180.22 148.34 L2180.22 162.229 L2175.54 162.229 L2175.54 127.669 Z" fill="#000000" fill-rule="nonzero" fill-opacity="1" /><path clip-path="url(#clip270)" d="M2208.8 131.511 L2208.8 144.497 L2214.68 144.497 Q2217.95 144.497 2219.73 142.807 Q2221.51 141.118 2221.51 137.993 Q2221.51 134.891 2219.73 133.201 Q2217.95 131.511 2214.68 131.511 L2208.8 131.511 M2204.13 127.669 L2214.68 127.669 Q2220.49 127.669 2223.46 130.307 Q2226.44 132.923 2226.44 137.993 Q2226.44 143.108 2223.46 145.724 Q2220.49 148.34 2214.68 148.34 L2208.8 148.34 L2208.8 162.229 L2204.13 162.229 L2204.13 127.669 Z" fill="#000000" fill-rule="nonzero" fill-opacity="1" /><path clip-path="url(#clip270)" d="M2258.59 130.331 L2258.59 135.261 Q2256.23 133.062 2253.55 131.974 Q2250.89 130.886 2247.88 130.886 Q2241.95 130.886 2238.8 134.52 Q2235.65 138.132 2235.65 144.983 Q2235.65 151.812 2238.8 155.446 Q2241.95 159.057 2247.88 159.057 Q2250.89 159.057 2253.55 157.969 Q2256.23 156.881 2258.59 154.682 L2258.59 159.567 Q2256.14 161.233 2253.39 162.067 Q2250.65 162.9 2247.6 162.9 Q2239.75 162.9 2235.24 158.108 Q2230.72 153.293 2230.72 144.983 Q2230.72 136.65 2235.24 131.858 Q2239.75 127.044 2247.6 127.044 Q2250.7 127.044 2253.43 127.877 Q2256.19 128.687 2258.59 130.331 Z" fill="#000000" fill-rule="nonzero" fill-opacity="1" /></svg>
